<svg width="18" height="18" viewBox="0 0 18 18" fill="none" xmlns="http://www.w3.org/2000/svg">
<path d="M17.7188 9C17.7188 13.8164 13.8164 17.7188 9 17.7188C4.18359 17.7188 0.28125 13.8164 0.28125 9C0.28125 4.18359 4.18359 0.28125 9 0.28125C13.8164 0.28125 17.7188 4.18359 17.7188 9ZM7.45312 4.92188V9H4.96055C4.58438 9 4.39453 9.45703 4.66172 9.7207L8.70117 13.7391C8.86641 13.9043 9.13008 13.9043 9.29531 13.7391L13.3348 9.7207C13.602 9.45352 13.4121 9 13.0359 9H10.5469V4.92188C10.5469 4.68984 10.357 4.5 10.125 4.5H7.875C7.64297 4.5 7.45312 4.68984 7.45312 4.92188Z" fill="white"/>
</svg>
