<svg width="50" height="40" viewBox="0 0 50 40" fill="none" xmlns="http://www.w3.org/2000/svg">
<g clip-path="url(#clip0)">
<path d="M16.25 27.5C16.0633 27.5 15.8766 27.5273 15.6985 27.5852C14.686 27.9141 13.6211 28.125 12.5 28.125C11.3789 28.125 10.3141 27.9141 9.30079 27.5852C9.12267 27.5273 8.93673 27.5 8.75001 27.5C3.90157 27.5 -0.0257771 31.4438 4.13904e-06 36.2984C0.0109416 38.35 1.69766 40 3.75001 40H21.25C23.3024 40 24.9891 38.35 25 36.2984C25.0258 31.4438 21.0985 27.5 16.25 27.5ZM12.5 25C16.6422 25 20 21.6422 20 17.5C20 13.3578 16.6422 10 12.5 10C8.35782 10 5.00001 13.3578 5.00001 17.5C5.00001 21.6422 8.35782 25 12.5 25ZM46.25 0H16.25C14.182 0 12.5 1.73828 12.5 3.87422V7.5C14.3297 7.5 16.0235 8.02969 17.5 8.89062V5H45V27.5H40V22.5H30V27.5H24.0438C25.536 28.8039 26.6313 30.5258 27.1446 32.5H46.25C48.318 32.5 50 30.7617 50 28.6258V3.87422C50 1.73828 48.318 0 46.25 0Z" fill="black"/>
</g>
<defs>
<clipPath id="clip0">
<rect width="50" height="40" fill="white"/>
</clipPath>
</defs>
</svg>
