<svg width="35" height="40" viewBox="0 0 35 40" fill="none" xmlns="http://www.w3.org/2000/svg">
<path d="M35 5.7143V9.2857C35 12.433 27.1615 15 17.5 15C7.83852 15 0 12.433 0 9.2857V5.7143C0 2.56695 7.83852 0 17.5 0C27.1615 0 35 2.56695 35 5.7143ZM35 13.75V21.7857C35 24.933 27.1615 27.5 17.5 27.5C7.83852 27.5 0 24.933 0 21.7857V13.75C3.75977 16.3393 10.6412 17.5447 17.5 17.5447C24.3587 17.5447 31.2402 16.3393 35 13.75ZM35 26.25V34.2857C35 37.433 27.1615 40 17.5 40C7.83852 40 0 37.433 0 34.2857V26.25C3.75977 28.8393 10.6412 30.0447 17.5 30.0447C24.3587 30.0447 31.2402 28.8393 35 26.25Z" fill="black"/>
</svg>
