<svg width="25" height="22" viewBox="0 0 25 22" fill="none" xmlns="http://www.w3.org/2000/svg">
<path d="M1.20542 7.00634C1.02261 6.83505 0.750732 6.99529 0.750732 7.26604V18.5657C0.750732 20.0299 1.75854 21.2179 3.00073 21.2179H22.5007C23.7429 21.2179 24.7507 20.0299 24.7507 18.5657V7.27156C24.7507 6.99529 24.4835 6.84057 24.296 7.01186C23.246 7.9733 21.8539 9.19444 17.0726 13.2888C16.0835 14.1398 14.4148 15.93 12.7507 15.919C11.0773 15.9356 9.37573 14.1066 8.42417 13.2888C3.64292 9.19444 2.25542 7.96778 1.20542 7.00634ZM12.7507 14.1453C11.6632 14.1674 10.0976 12.5318 9.31011 11.8577C3.0898 6.53667 2.61636 6.07253 1.18198 4.74641C0.910108 4.49776 0.750732 4.11097 0.750732 3.70209V2.65224C0.750732 1.18798 1.75854 0 3.00073 0H22.5007C23.7429 0 24.7507 1.18798 24.7507 2.65224V3.70209C24.7507 4.11097 24.5914 4.49223 24.3195 4.74641C22.8851 6.067 22.4117 6.53667 16.1914 11.8577C15.4039 12.5318 13.8382 14.1674 12.7507 14.1453Z" fill="white"/>
</svg>
