<svg width="14" height="16" viewBox="0 0 14 16" fill="none" xmlns="http://www.w3.org/2000/svg">
<path d="M11.9498 9.92938C11.1873 9.14352 10.2799 8.56174 9.28974 8.20957C10.3502 7.45671 11.0469 6.19674 11.0469 4.77202C11.0469 2.4719 9.23144 0.600586 7 0.600586C4.76856 0.600586 2.95312 2.4719 2.95312 4.77202C2.95312 6.19674 3.64982 7.45671 4.71029 8.20957C3.72017 8.56174 2.81269 9.14352 2.05026 9.92938C0.728137 11.2922 0 13.1042 0 15.0315H1.09375C1.09375 11.6745 3.74328 8.94346 7 8.94346C10.2567 8.94346 12.9062 11.6745 12.9062 15.0315H14C14 13.1042 13.2719 11.2922 11.9498 9.92938ZM7 7.81604C5.37165 7.81604 4.04688 6.45052 4.04688 4.77202C4.04688 3.09353 5.37165 1.728 7 1.728C8.62835 1.728 9.95312 3.09353 9.95312 4.77202C9.95312 6.45052 8.62835 7.81604 7 7.81604Z" fill="white"/>
</svg>
