<svg width="150" height="150" viewBox="0 0 150 150" fill="none" xmlns="http://www.w3.org/2000/svg">
<path opacity="0.5" d="M135.986 96.75H82.4143V96.9643H135.986V96.75Z" fill="url(#paint0_linear)"/>
<path opacity="0.5" d="M135.386 88.3713H81.8143V88.5857H135.386V88.3713Z" fill="url(#paint1_linear)"/>
<path opacity="0.5" d="M146.379 74.1643H92.8071V74.3786H146.379V74.1643Z" fill="url(#paint2_linear)"/>
<path opacity="0.5" d="M85.6286 31.0499V84.6214H85.4143V31.0499H85.6286Z" fill="url(#paint3_linear)"/>
<path opacity="0.5" d="M130.693 65.25V86.6786H130.479V65.25H130.693Z" fill="url(#paint4_linear)"/>
<path opacity="0.5" d="M141.45 59.7427H87.8786V59.957H141.45V59.7427Z" fill="url(#paint5_linear)"/>
<path opacity="0.5" d="M84.9643 109.457H31.3929V109.671H84.9643V109.457Z" fill="url(#paint6_linear)"/>
<path opacity="0.5" d="M57.5357 38.3572H3.96429V38.5715H57.5357V38.3572Z" fill="url(#paint7_linear)"/>
<path opacity="0.5" d="M46.9286 68.5714L18.45 23.2072L18.6214 23.0786L47.1 68.4643L46.9286 68.5714Z" fill="url(#paint8_linear)"/>
<path opacity="0.5" d="M59.3143 69.6857L30.8571 24.3L31.0286 24.1929L59.5072 69.5786L59.3143 69.6857Z" fill="url(#paint9_linear)"/>
<path opacity="0.5" d="M32.5071 78.9643L4.02856 33.5786L4.19999 33.4714L32.6786 78.8571L32.5071 78.9643Z" fill="url(#paint10_linear)"/>
<path opacity="0.5" d="M79.35 119.55L50.8714 74.1643L51.0643 74.0571L79.5429 119.443L79.35 119.55Z" fill="url(#paint11_linear)"/>
<path d="M6.83569 38.3357L27.9 38.4214L73.3714 109.393H52.5643L6.83569 38.3357Z" fill="#FC000D"/>
<path d="M39.6857 38.4001L56.4214 38.4644L92.5072 94.8216H75.9857L39.6857 38.4001Z" fill="url(#paint12_linear)"/>
<path d="M55.5 51.6214L47.1214 38.4214Z" fill="#FC000D"/>
<path d="M130.221 74.0143C130.221 92.7643 115.757 108.107 97.4571 109.393L97.9928 96.8143C97.9928 96.8143 116.357 90.5143 116.314 74.2714C116.271 63.8785 109.071 54.6642 98.85 52.0714C98.0786 51.9214 97.3928 51.8142 96.7714 51.7714C96.2571 51.7285 95.8714 51.7071 95.2071 51.6857C94.4357 51.6642 93.75 51.6642 93.1286 51.6642C91.6928 51.6642 90.2357 51.6642 88.8 51.6642L65.1643 51.6428L48.2143 51.6214L39.8571 38.4214L94.4571 38.55H94.5214H95.6357H95.7C114.836 38.9571 130.221 54.6857 130.221 74.0143Z" fill="#FC000D"/>
<defs>
<linearGradient id="paint0_linear" x1="82.4244" y1="96.8572" x2="135.996" y2="96.8572" gradientUnits="userSpaceOnUse">
<stop offset="0.0103455" stop-color="white"/>
<stop offset="0.2095" stop-color="#C7C7C7" stop-opacity="0.5209"/>
<stop offset="1" stop-color="#C4C4C4" stop-opacity="0.5"/>
</linearGradient>
<linearGradient id="paint1_linear" x1="81.8193" y1="88.4873" x2="135.391" y2="88.4873" gradientUnits="userSpaceOnUse">
<stop offset="0.0103455" stop-color="white"/>
<stop offset="0.2095" stop-color="#C7C7C7" stop-opacity="0.5209"/>
<stop offset="1" stop-color="#C4C4C4" stop-opacity="0.5"/>
</linearGradient>
<linearGradient id="paint2_linear" x1="92.8109" y1="74.2689" x2="146.382" y2="74.2689" gradientUnits="userSpaceOnUse">
<stop offset="0.0103455" stop-color="white"/>
<stop offset="0.2095" stop-color="#C7C7C7" stop-opacity="0.5209"/>
<stop offset="1" stop-color="#C4C4C4" stop-opacity="0.5"/>
</linearGradient>
<linearGradient id="paint3_linear" x1="85.5126" y1="84.6175" x2="85.5126" y2="31.0461" gradientUnits="userSpaceOnUse">
<stop offset="0.0103455" stop-color="white"/>
<stop offset="0.2095" stop-color="#C7C7C7" stop-opacity="0.5209"/>
<stop offset="1" stop-color="#C4C4C4" stop-opacity="0.5"/>
</linearGradient>
<linearGradient id="paint4_linear" x1="130.588" y1="86.6723" x2="130.588" y2="65.2437" gradientUnits="userSpaceOnUse">
<stop offset="0.0103455" stop-color="white"/>
<stop offset="0.2095" stop-color="#C7C7C7" stop-opacity="0.5209"/>
<stop offset="1" stop-color="#C4C4C4" stop-opacity="0.5"/>
</linearGradient>
<linearGradient id="paint5_linear" x1="87.8697" y1="59.8486" x2="141.441" y2="59.8486" gradientUnits="userSpaceOnUse">
<stop offset="0.0103455" stop-color="white"/>
<stop offset="0.2095" stop-color="#C7C7C7" stop-opacity="0.5209"/>
<stop offset="1" stop-color="#C4C4C4" stop-opacity="0.5"/>
</linearGradient>
<linearGradient id="paint6_linear" x1="31.3992" y1="109.563" x2="84.9706" y2="109.563" gradientUnits="userSpaceOnUse">
<stop offset="0.0103455" stop-color="white"/>
<stop offset="0.2095" stop-color="#C7C7C7" stop-opacity="0.5209"/>
<stop offset="1" stop-color="#C4C4C4" stop-opacity="0.5"/>
</linearGradient>
<linearGradient id="paint7_linear" x1="3.97059" y1="38.4706" x2="57.542" y2="38.4706" gradientUnits="userSpaceOnUse">
<stop offset="0.0103455" stop-color="white"/>
<stop offset="0.2095" stop-color="#C7C7C7" stop-opacity="0.5209"/>
<stop offset="1" stop-color="#C4C4C4" stop-opacity="0.5"/>
</linearGradient>
<linearGradient id="paint8_linear" x1="18.5169" y1="23.1681" x2="46.99" y2="68.5431" gradientUnits="userSpaceOnUse">
<stop offset="0.0103455" stop-color="white"/>
<stop offset="0.2095" stop-color="#C7C7C7" stop-opacity="0.5209"/>
<stop offset="1" stop-color="#C4C4C4" stop-opacity="0.5"/>
</linearGradient>
<linearGradient id="paint9_linear" x1="30.9196" y1="24.2771" x2="59.3928" y2="69.6521" gradientUnits="userSpaceOnUse">
<stop offset="0.0103455" stop-color="white"/>
<stop offset="0.2095" stop-color="#C7C7C7" stop-opacity="0.5209"/>
<stop offset="1" stop-color="#C4C4C4" stop-opacity="0.5"/>
</linearGradient>
<linearGradient id="paint10_linear" x1="4.09758" y1="33.5543" x2="32.5708" y2="78.9293" gradientUnits="userSpaceOnUse">
<stop offset="0.0103455" stop-color="white"/>
<stop offset="0.2095" stop-color="#C7C7C7" stop-opacity="0.5209"/>
<stop offset="1" stop-color="#C4C4C4" stop-opacity="0.5"/>
</linearGradient>
<linearGradient id="paint11_linear" x1="50.9518" y1="74.1316" x2="79.4189" y2="119.511" gradientUnits="userSpaceOnUse">
<stop stop-color="#C4C4C4" stop-opacity="0"/>
<stop offset="0.7905" stop-color="#C7C7C7" stop-opacity="0.5209"/>
<stop offset="0.9897" stop-color="white"/>
</linearGradient>
<linearGradient id="paint12_linear" x1="92.8209" y1="93.2513" x2="38.1974" y2="38.6278" gradientUnits="userSpaceOnUse">
<stop offset="0.1277" stop-color="white" stop-opacity="0"/>
<stop offset="0.6257" stop-color="#FC000D"/>
</linearGradient>
</defs>
</svg>
