<svg width="24" height="28" viewBox="0 0 24 28" fill="none" xmlns="http://www.w3.org/2000/svg">
<path d="M23.1281 1.34196L18.2532 0.0333061C17.7236 -0.108465 17.1798 0.213246 16.9642 0.791237L14.7143 6.8983C14.5174 7.43267 14.6486 8.05974 15.0377 8.42507L17.8782 11.1296C16.1908 15.3119 13.2424 18.7907 9.57217 20.7919L7.24722 17.4875C6.92847 17.0349 6.39411 16.8823 5.93474 17.1113L0.684849 19.7286C0.183297 19.9849 -0.0932599 20.6174 0.0286127 21.2336L1.15359 26.9044C1.27077 27.4933 1.72077 27.9186 2.25044 27.9186C14.2549 27.9186 24 16.6042 24 2.6179C24 2.0072 23.6391 1.47828 23.1281 1.34196Z" fill="white"/>
</svg>
