<svg xmlns="http://www.w3.org/2000/svg" xmlns:xlink="http://www.w3.org/1999/xlink" viewBox="0 0 719.82 700"><defs><style>.cls-1{fill:none;}.cls-10,.cls-11,.cls-12,.cls-13,.cls-2,.cls-3,.cls-4,.cls-5,.cls-6,.cls-7,.cls-8,.cls-9{opacity:0.5;}.cls-2{fill:url(#Безымянный_градиент_28);}.cls-3{fill:url(#Безымянный_градиент_28-2);}.cls-4{fill:url(#Безымянный_градиент_28-3);}.cls-5{fill:url(#Безымянный_градиент_28-4);}.cls-6{fill:url(#Безымянный_градиент_28-5);}.cls-7{fill:url(#Безымянный_градиент_28-6);}.cls-8{fill:url(#Безымянный_градиент_28-7);}.cls-9{fill:url(#Безымянный_градиент_28-8);}.cls-10{fill:url(#Безымянный_градиент_28-9);}.cls-11{fill:url(#Безымянный_градиент_28-10);}.cls-12{fill:url(#Безымянный_градиент_28-11);}.cls-13{fill:url(#Безымянный_градиент_53);}.cls-14{fill:#fc000d;}.cls-15{fill:url(#Безымянный_градиент_50);}</style><linearGradient id="Безымянный_градиент_28" x1="421.35" y1="423.76" x2="671.35" y2="423.76" gradientUnits="userSpaceOnUse"><stop offset="0.01" stop-color="#fff"/><stop offset="0.21" stop-color="#c7c7c7" stop-opacity="0.52"/><stop offset="1" stop-color="#c4c4c4" stop-opacity="0.5"/></linearGradient><linearGradient id="Безымянный_градиент_28-2" x1="418.53" y1="384.71" x2="668.53" y2="384.71" xlink:href="#Безымянный_градиент_28"/><linearGradient id="Безымянный_градиент_28-3" x1="469.82" y1="318.35" x2="719.82" y2="318.35" xlink:href="#Безымянный_градиент_28"/><linearGradient id="Безымянный_градиент_28-4" x1="-2209.29" y1="3694.29" x2="-1959.29" y2="3694.29" gradientTransform="translate(2520.06 -3452.65)" xlink:href="#Безымянный_градиент_28"/><linearGradient id="Безымянный_градиент_28-5" x1="-2218.88" y1="3904.65" x2="-2118.88" y2="3904.65" gradientTransform="translate(2815 -3578.41)" xlink:href="#Безымянный_градиент_28"/><linearGradient id="Безымянный_градиент_28-6" x1="446.76" y1="251.06" x2="696.76" y2="251.06" xlink:href="#Безымянный_градиент_28"/><linearGradient id="Безымянный_градиент_28-7" x1="183.24" y1="483.06" x2="433.24" y2="483.06" xlink:href="#Безымянный_градиент_28"/><linearGradient id="Безымянный_градиент_28-8" x1="55.24" y1="151.29" x2="305.24" y2="151.29" xlink:href="#Безымянный_градиент_28"/><linearGradient id="Безымянный_градиент_28-9" x1="-1651.65" y1="-2335.06" x2="-1401.65" y2="-2335.06" gradientTransform="translate(1716.3 2520.7)" xlink:href="#Безымянный_градиент_28"/><linearGradient id="Безымянный_градиент_28-10" x1="-1616.5" y1="-2381.33" x2="-1366.5" y2="-2381.33" gradientTransform="translate(1739.03 2572.16)" xlink:href="#Безымянный_градиент_28"/><linearGradient id="Безымянный_градиент_28-11" x1="-1646.37" y1="-2252.29" x2="-1396.37" y2="-2252.29" gradientTransform="translate(1643.72 2486.41)" xlink:href="#Безымянный_градиент_28"/><linearGradient id="Безымянный_градиент_53" x1="-1369.73" y1="-2336.85" x2="-1119.73" y2="-2336.82" gradientTransform="translate(1585.73 2760.34)" gradientUnits="userSpaceOnUse"><stop offset="0" stop-color="#c4c4c4" stop-opacity="0"/><stop offset="0.79" stop-color="#c7c7c7" stop-opacity="0.52"/><stop offset="0.99" stop-color="#fff"/></linearGradient><linearGradient id="Безымянный_градиент_50" x1="469.87" y1="406.94" x2="214.96" y2="152.03" gradientUnits="userSpaceOnUse"><stop offset="0.13" stop-color="#fff" stop-opacity="0"/><stop offset="0.63" stop-color="#fc000d"/></linearGradient></defs><title>vulong-logo</title><g id="Слой_2" data-name="Слой 2"><g id="Слой_5" data-name="Слой 5"><rect class="cls-1" width="700" height="700"/><g id="Сетка_копия_" data-name="Сетка (копия)"><rect class="cls-2" x="421.35" y="423.26" width="250" height="1"/><rect class="cls-3" x="418.53" y="384.21" width="250" height="1"/><rect class="cls-4" x="469.82" y="317.85" width="250" height="1"/><rect class="cls-5" x="310.76" y="241.15" width="250" height="1" transform="translate(194.12 677.41) rotate(-90)"/><rect class="cls-6" x="596.12" y="325.74" width="100" height="1" transform="translate(319.88 972.35) rotate(-90)"/><rect class="cls-7" x="446.76" y="250.56" width="250" height="1"/><rect class="cls-8" x="183.24" y="482.56" width="250" height="1"/><rect class="cls-9" x="55.24" y="150.79" width="250" height="1"/><rect class="cls-10" x="64.65" y="185.15" width="250" height="1" transform="translate(246.1 -73.67) rotate(57.89)"/><rect class="cls-11" x="122.53" y="190.32" width="250" height="1" transform="translate(277.6 -120.27) rotate(57.89)"/><rect class="cls-12" x="-2.65" y="233.62" width="250" height="1" transform="translate(255.63 6.04) rotate(57.89)"/><rect class="cls-13" x="216" y="423" width="250" height="1" transform="translate(518.48 -90.44) rotate(57.89)"/></g><g id="Контур"><polygon class="cls-14" points="68.59 150.71 166.94 151.06 379.06 482.29 282 482.29 68.59 150.71"/><polygon class="cls-15" points="221.89 150.94 299.98 151.22 468.41 414.24 391.34 414.24 221.89 150.94"/><polyline class="cls-14" points="295.67 212.65 295.66 212.63 256.59 151.07 256.58 151.06"/><path class="cls-14" d="M644.41,317.18c0,87.49-67.46,159.13-152.89,165.12l2.54-58.71s85.72-29.38,85.47-105.2c-.16-48.55-33.8-91.52-81.53-103.56a84.49,84.49,0,0,0-9.65-1.42c-2.36-.2-4.17-.26-7.29-.35-3.55-.1-6.8-.13-9.71-.11l-20.19,0-110.32-.16-79.06-.13-39.07-61.56,254.79.6h5.85C572.61,153.53,644.41,226.92,644.41,317.18Z"/></g></g></g></svg>